<?xml version="1.0" standalone="no"?><!DOCTYPE svg PUBLIC "-//W3C//DTD SVG 1.1//EN" "http://www.w3.org/Graphics/SVG/1.1/DTD/svg11.dtd"><svg t="1595491925627" class="icon" viewBox="0 0 1297 1024" version="1.1" xmlns="http://www.w3.org/2000/svg" p-id="2227" xmlns:xlink="http://www.w3.org/1999/xlink" width="253.3203125" height="200"><defs><style type="text/css"></style></defs><path d="M202.79882811 149.60937525C219.51562474 133.6835935 248.15039036 122.60937475 288.59765649 116.4921875l735.69726512 3.00585938c40.13085912 0 68.13281225 10.0195315 83.84765625 30.11132837 15.8203125 20.03906225 23.09765625 44.50781275 21.88476588 73.30078075v606.39257812c-5.85351563 29.47851588-13.13085938 48.51562475-21.83203125 57.21679738-8.7539065 8.64843725-27.52734375 15.50390625-56.3203125 20.56640625H288.01757786c-31.48242187 1.00195338-56.953125-8.27929713-76.46484324-27.84375-19.511719-19.6171875-29.79492213-46.1953125-30.69140625-79.734375V219.27148412C178.75195311 188.79101562 186.08203149 165.53515625 202.79882811 149.60937525z m50.25585913 48.304687c-14.87109375 13.8164065-21.35742188 33.96093725-19.51171825 60.38085988v502.82226512c0.84375025 29.109375 9.91406225 52.10156275 27.26367137 69.08203175 17.34960912 16.980469 40.02539063 25.04882838 68.02734375 24.1523435H1007.89453124c25.62890625-4.37695287 42.292969-10.28320313 50.04492213-17.8242185 7.75195313-7.54101537 14.23828125-24.046875 19.40624974-49.57031275V261.5117185c1.05468725-24.99609375-5.37890625-46.1953125-19.40624974-63.59765625-14.0273435-17.40234375-38.86523412-26.050781-74.56640651-26.050781L329.36132811 169.22656275c-36.01757787 5.27343775-61.43554713 14.87109375-76.30664087 28.6874995z" fill="#000000" p-id="2228"></path><path d="M444.16406224 380.16406225m-52.7343745 0a52.73437525 52.73437525 0 1 0 105.46874975 0 52.73437525 52.73437525 0 1 0-105.46874975 0Z" fill="#000000" p-id="2229"></path><path d="M339.22265649 856.46093775c269.15625025-247.16601588 426.83203125-370.7226565 473.02734375-370.7226565 41.765625 0 129.99023412 53.47265625 264.726562 160.52343725v53.10351613c-136.160156-107.36718725-224.38476588-161.10351588-264.726562-161.10351588-37.75781225 0-170.01562475 106.04882838-396.82617212 318.199219H339.22265649z" fill="#000000" p-id="2230"></path></svg>