<?xml version="1.0" standalone="no"?><!DOCTYPE svg PUBLIC "-//W3C//DTD SVG 1.1//EN" "http://www.w3.org/Graphics/SVG/1.1/DTD/svg11.dtd"><svg t="1596268431696" class="icon" viewBox="0 0 1024 1024" version="1.1" xmlns="http://www.w3.org/2000/svg" p-id="8117" xmlns:xlink="http://www.w3.org/1999/xlink" width="200" height="200"><defs><style type="text/css"></style></defs><path d="M214.656 384a85.44 85.44 0 0 0-85.333333 85.333333v341.333334a85.333333 85.333333 0 0 0 170.666666 0V469.333333a85.44 85.44 0 0 0-85.333333-85.333333zM898.346667 422.250667A106.346667 106.346667 0 0 0 816.597333 384H690.986667c19.285333-78.997333 9.749333-158.464-26.24-208.426667A106.944 106.944 0 0 0 577.322667 128c-49.792 0-49.792 46.122667-49.792 79.786667 0 66.368-14.208 176.213333-168.704 219.52a21.653333 21.653333 0 0 0-16.170667 20.693333v341.461333A106.666667 106.666667 0 0 0 449.194667 896H762.24a106.496 106.496 0 0 0 104.789333-87.466667l54.378667-298.965333a106.325333 106.325333 0 0 0-23.04-87.317333z" fill="#8a8a8a" p-id="8118"></path></svg>