<svg width="589" height="629" viewBox="0 0 589 629" fill="none" xmlns="http://www.w3.org/2000/svg">
<path d="M222 225L176.5 366.107L292.26 460.782L410.809 366.107L364.011 225H222Z" fill="white"/>
<path d="M222 225H364.011L292.26 2L222 225Z" fill="white"/>
<path d="M176.5 366.107L222 225H2L176.5 366.107Z" fill="white"/>
<path d="M292.26 460.782L176.5 366.107L83.5 627.5L292.26 460.782Z" fill="white"/>
<path d="M410.809 366.107L292.26 460.782L497.5 627.5L410.809 366.107Z" fill="white"/>
<path d="M364.011 225L410.809 366.107L587.5 225H364.011Z" fill="white"/>
<path d="M222 225L176.5 366.107M222 225H364.011M222 225H2L176.5 366.107M222 225L292.26 2L364.011 225M176.5 366.107L292.26 460.782M176.5 366.107L83.5 627.5L292.26 460.782M292.26 460.782L410.809 366.107M292.26 460.782L497.5 627.5L410.809 366.107M410.809 366.107L364.011 225M410.809 366.107L587.5 225H364.011" stroke="#FFFCFC"/>
<path d="M236.474 246.484L200.183 354.993L292.514 427.796L387.07 354.993L349.743 246.484H236.474Z" fill="#C99774"/>
<path d="M236.474 246.484H349.743L292.514 75L236.474 246.484Z" fill="#C99774"/>
<path d="M200.183 354.993L236.474 246.484H61L200.183 354.993Z" fill="#C99774"/>
<path d="M292.514 427.796L200.183 354.993L126.005 556L292.514 427.796Z" fill="#C99774"/>
<path d="M387.07 354.993L292.514 427.796L456.215 556L387.07 354.993Z" fill="#C99774"/>
<path d="M349.743 246.484L387.07 354.993L528 246.484H349.743Z" fill="#C99774"/>
<path d="M236.474 246.484L200.183 354.993M236.474 246.484H349.743M236.474 246.484H61L200.183 354.993M236.474 246.484L292.514 75L349.743 246.484M200.183 354.993L292.514 427.796M200.183 354.993L126.005 556L292.514 427.796M292.514 427.796L387.07 354.993M292.514 427.796L456.215 556L387.07 354.993M387.07 354.993L349.743 246.484M387.07 354.993L528 246.484H349.743" stroke="#C99774"/>
</svg>
