<?xml version="1.0" standalone="no"?><!DOCTYPE svg PUBLIC "-//W3C//DTD SVG 1.1//EN" "http://www.w3.org/Graphics/SVG/1.1/DTD/svg11.dtd"><svg t="1597202813836" class="icon" viewBox="0 0 1024 1024" version="1.1" xmlns="http://www.w3.org/2000/svg" p-id="2356" xmlns:xlink="http://www.w3.org/1999/xlink" width="200" height="200"><defs><style type="text/css"></style></defs><path d="M903.253 293.55a447.223 447.223 0 0 0-32.798-50.316l34.811 12.67c16.608 6.045 34.971-2.519 41.015-19.125 6.045-16.607-2.518-34.97-19.125-41.015l-180.421-65.667c-16.608-6.045-34.971 2.518-41.015 19.125a31.838 31.838 0 0 0-1.522 16.028c1.115 9.155 6.154 17.76 14.528 23.121C829.709 259.424 895.969 380.407 895.969 512c0 211.721-172.248 383.969-383.969 383.969-17.69 0-32.031 14.341-32.031 32.031S494.31 960.031 512 960.031c60.47 0 119.147-11.85 174.404-35.222 53.354-22.567 101.266-54.867 142.401-96.004 41.137-41.136 73.437-89.047 96.004-142.401C948.182 631.147 960.031 572.47 960.031 512c0-76.515-19.634-152.054-56.778-218.45zM305.273 835.629C194.29 764.576 128.031 643.593 128.031 512c0-211.721 172.248-383.969 383.969-383.969 17.69 0 32.031-14.341 32.031-32.031S529.69 63.969 512 63.969c-60.47 0-119.147 11.85-174.404 35.222-53.355 22.567-101.266 54.867-142.402 96.003s-73.437 89.047-96.004 142.402C75.819 392.852 63.969 451.53 63.969 512c0 76.516 19.633 152.054 56.778 218.449a447.173 447.173 0 0 0 32.797 50.316l-34.81-12.67c-16.608-6.045-34.971 2.519-41.015 19.126-6.044 16.606 2.518 34.97 19.125 41.015l180.421 65.668c16.607 6.044 34.97-2.519 41.015-19.126a31.831 31.831 0 0 0 1.513-16.079c-1.126-9.136-6.162-17.72-14.52-23.07z" p-id="2357"></path><path d="M480 736c0 17.674 14.326 32 32 32s32-14.326 32-32v-96h128c17.673 0 32-14.326 32-32s-14.327-32-32-32H544v-64h128c17.673 0 32-14.327 32-32s-14.327-32-32-32h-75.745l81.255-81.255c12.496-12.497 12.497-32.758 0-45.255-12.497-12.498-32.759-12.497-45.255 0L512.5 441.245 393.745 322.49c-12.496-12.497-32.758-12.498-45.255 0-12.497 12.497-12.496 32.758 0 45.255L428.745 448H352c-17.673 0-32 14.327-32 32s14.327 32 32 32h128v64H352c-17.673 0-32 14.326-32 32s14.327 32 32 32h128v96z" p-id="2358"></path></svg>