<?xml version="1.0" standalone="no"?><!DOCTYPE svg PUBLIC "-//W3C//DTD SVG 1.1//EN" "http://www.w3.org/Graphics/SVG/1.1/DTD/svg11.dtd"><svg t="1597202966612" class="icon" viewBox="0 0 1024 1024" version="1.1" xmlns="http://www.w3.org/2000/svg" p-id="4889" xmlns:xlink="http://www.w3.org/1999/xlink" width="200" height="200"><defs><style type="text/css"></style></defs><path d="M857.44 630.54a37.22 37.22 0 0 0-32.76 19.54q-1.08 2.43-2.18 4.83c-54.11 117.35-172.78 198.8-310.5 198.8-186.54 0-338.16-149.47-341.64-335.17 0-2.18-0.07-4.36-0.07-6.54v-2.55a37.15 37.15 0 0 0-37.1-35.18h-0.09A37.13 37.13 0 0 0 96 509.92v320.89A37.14 37.14 0 0 0 133.14 868h0.09a37.15 37.15 0 0 0 37.15-37.15v-81.4C245.53 857.35 370.52 928 512 928c168.09 0 312.89-99.7 378.51-243.19 0.56-1.23 1.12-2.46 1.67-3.7a37.21 37.21 0 0 0-34.76-50.57zM928 506.76V192.5a37.15 37.15 0 1 0-74.29 0v82.13C778.56 166.66 653.53 96 512 96c-167.81 0-312.4 99.37-378.17 242.47q-1 2.19-2 4.39a37.2 37.2 0 0 0 68.29 29.32c0.28-0.64 0.56-1.27 0.85-1.9 53.85-118 172.86-200 311-200 185.68 0 339.25 154.39 341.69 332.76V512.77a37.14 37.14 0 0 0 74.26-1v-4.59c0.08-0.18 0.08-0.28 0.08-0.42z" fill="#999999" p-id="4890"></path><path d="M633 270.49L511.64 391.85 390.12 270.34a36.52 36.52 0 0 0-51.66 0 36.52 36.52 0 0 0 0 51.66l84.32 84.32h-51.93a37.14 37.14 0 0 0-37.14 37.14 37.14 37.14 0 0 0 37.14 37.15h104V540h-104a37.14 37.14 0 0 0-37.14 37.15 37.14 37.14 0 0 0 37.14 37.14h104v112.9a37.14 37.14 0 0 0 74.28 0V614.32h104a37.14 37.14 0 0 0 37.14-37.14A37.14 37.14 0 0 0 653.15 540h-104v-59.39h104a37.14 37.14 0 0 0 37.14-37.15 37.14 37.14 0 0 0-37.14-37.14H602l83.44-83.45a37 37 0 0 0 0-52.38 37 37 0 0 0-52.44 0z" fill="#999999" p-id="4891"></path></svg>