<?xml version="1.0" standalone="no"?><!DOCTYPE svg PUBLIC "-//W3C//DTD SVG 1.1//EN" "http://www.w3.org/Graphics/SVG/1.1/DTD/svg11.dtd"><svg t="1596868990057" class="icon" viewBox="0 0 1024 1024" version="1.1" xmlns="http://www.w3.org/2000/svg" p-id="4699" xmlns:xlink="http://www.w3.org/1999/xlink" width="200" height="200"><defs><style type="text/css"></style></defs><path d="M778.848865 930.843676s11.900541-73.977081-61.44-164.365838c71.320216-207.512216 74.807351-325.908757 74.807351-325.908757s146.653405 34.926703 146.653406 184.873514c0 256.857946-160.020757 305.401081-160.020757 305.401081z m-404.230919-90.167352s-104.614054-256.166054-104.614054-391.749189c0-60.997189 6.586811-76.744649 16.882162-125.979676h447.515676c10.378378 49.262703 17.048216 65.037838 17.048216 126.007352 0 133.562811-91.495784 391.721514-91.495784 391.721513h-285.336216z m135.887568-468.715243c-50.314378 0-91.136 42.316108-91.136 94.512433 0 52.196324 40.821622 94.484757 91.163675 94.484756s91.136-42.288432 91.136-94.484756c0-52.196324-40.793946-94.512432-91.136-94.512433z m-19.594379-325.82573V20.203243h35.480216v29.114811c40.544865 30.609297 150.306595 50.923243 199.929081 238.481297H294.884324c47.961946-182.382703 152.409946-208.038054 196.026811-241.608648zM255.723243 930.843676S82.833297 882.300541 82.833297 625.47027c0-150.002162 146.653405-184.901189 146.653406-184.901189s1.024 134.946595 87.648865 325.908757c-73.312865 90.388757-61.44 164.365838-61.44 164.365838z m321.591352 18.957838l-29.751352-30.803028-31.716324 102.732109-37.638919-102.732109-25.738378 53.414055-37.666595-96.560433h204.108108l-41.624216 73.949406z" fill="#666666" p-id="4700"></path></svg>