<?xml version="1.0" standalone="no"?><!DOCTYPE svg PUBLIC "-//W3C//DTD SVG 1.1//EN" "http://www.w3.org/Graphics/SVG/1.1/DTD/svg11.dtd"><svg t="1600593287511" class="icon" viewBox="0 0 1024 1024" version="1.1" xmlns="http://www.w3.org/2000/svg" p-id="3796" width="64" height="64" xmlns:xlink="http://www.w3.org/1999/xlink"><defs><style type="text/css"></style></defs><path d="M869.7 828.8H579.1V231.4l246.4 83.8-104.4 293.3v0.1c-0.6 1.8-0.5 3.5 0.4 5 3.3 49 52.5 88 112.9 88 60.5 0 109.7-39 113-88 0.7-1.5 0.9-3.3 0.4-5v-0.1L843.3 315.7c3-1.8 5.6-4.6 6.8-8.2 2.7-7.9-1.5-16.6-9.5-19.3l-261.4-88.8v-53c0-45.5-29.3-82.4-65.5-82.4s-65.5 36.9-65.5 82.4v8.4L196.6 69.4c-7.9-2.7-16.6 1.5-19.1 9.5-1.4 4-0.9 7.9 0.7 11.4l-105.9 297v0.1c-0.6 1.8-0.5 3.5 0.4 5 3.3 49 52.5 88 113 88s109.7-39 113-88c0.7-1.5 0.9-3.3 0.2-5v-0.1L197 101.5l251.2 85.4v642H157.7c-45.5 0-82.4 29.3-82.4 65.6 0 36.2 36.9 65.5 82.4 65.5h711.9c45.5 0 82.4-29.3 82.4-65.5 0.1-36.3-36.9-65.7-82.3-65.7zM735 608.5l99.3-278.9 99.3 278.9H735zM86.2 387.2l99.3-278.9 99.3 278.9H86.2z" p-id="3797" fill="#FFBA2F"></path></svg>