<?xml version="1.0" standalone="no"?><!DOCTYPE svg PUBLIC "-//W3C//DTD SVG 1.1//EN" "http://www.w3.org/Graphics/SVG/1.1/DTD/svg11.dtd"><svg t="1596789740427" class="icon" viewBox="0 0 1024 1024" version="1.1" xmlns="http://www.w3.org/2000/svg" p-id="11713" xmlns:xlink="http://www.w3.org/1999/xlink" width="200" height="200"><defs><style type="text/css"></style></defs><path d="M900.224 125.44h-204.8c-48.128 0-115.712 28.16-150.016 61.952l-344.064 344.064c-34.304 34.304-34.304 90.112 0 124.416l256.512 256.512c34.304 34.304 90.112 34.304 124.416 0l344.064-344.064c34.304-34.304 61.952-101.376 61.952-150.016v-204.8c0-48.64-39.424-88.064-88.064-88.064zM783.488 418.304c-48.64 0-88.064-39.424-88.064-88.064s39.424-88.064 88.064-88.064 88.064 39.424 88.064 88.064-39.936 88.064-88.064 88.064z" fill="#FFD292" p-id="11714"></path><path d="M72.32 614.4l313.344 313.344c-33.28 17.408-75.264 12.288-103.424-15.36L25.728 655.872c-34.304-34.304-34.304-90.112 0-124.416l344.064-344.064c34.304-34.304 101.376-61.952 150.016-61.952l-447.488 447.488c-11.776 11.776-11.776 30.208 0 41.472z" fill="#FF9900" p-id="11715"></path></svg>