<?xml version="1.0" standalone="no"?><!DOCTYPE svg PUBLIC "-//W3C//DTD SVG 1.1//EN" "http://www.w3.org/Graphics/SVG/1.1/DTD/svg11.dtd"><svg t="1596278918599" class="icon" viewBox="0 0 1024 1024" version="1.1" xmlns="http://www.w3.org/2000/svg" p-id="8575" xmlns:xlink="http://www.w3.org/1999/xlink" width="48" height="48"><defs><style type="text/css"></style></defs><path d="M497.469039 4.833495a24.380807 24.380807 0 0 1 29.208207 0.073142A146.065416 146.065416 0 0 1 585.142422 121.885751a145.992274 145.992274 0 0 1-48.761615 109.03097v228.131213l100.692734-100.692734a145.992274 145.992274 0 0 1 42.642032-111.590955 146.065416 146.065416 0 0 1 124.073928-41.39861 24.380807 24.380807 0 0 1 20.699306 20.626163l0.365712 2.511223a146.309224 146.309224 0 0 1-153.257755 164.30226l-135.240338 135.191576v296.88509l180.222928-123.952024a145.992274 145.992274 0 0 1 42.544508-112.834376 146.065416 146.065416 0 0 1 124.098309-41.398611 24.380807 24.380807 0 0 1 20.674925 20.626163l0.365712 2.511223a146.309224 146.309224 0 0 1-150.063869 164.448545l-217.842513 149.771299L536.380807 999.619193a24.380807 24.380807 0 0 1-48.590949 2.852554L487.619193 999.619193v-144.261237l-213.697776-146.991887-0.536378 0.121904a145.943512 145.943512 0 0 1-119.344051-36.741876l-4.803019-4.583592a146.309224 146.309224 0 0 1-41.691181-121.70899l0.365713-2.511223a24.380807 24.380807 0 0 1 20.699305-20.626163 146.065416 146.065416 0 0 1 124.073928 41.398611 145.943512 145.943512 0 0 1 42.812698 100.327022l192.120761 132.143975V522.096702l-129.315802-129.291421a145.845989 145.845989 0 0 1-106.739174-38.034059l-4.803019-4.559211a146.309224 146.309224 0 0 1-41.691181-121.70899l0.365713-2.511223a24.380807 24.380807 0 0 1 20.699305-20.626163 146.065416 146.065416 0 0 1 124.073928 41.39861 145.992274 145.992274 0 0 1 42.617651 111.590955l94.768198 94.792579L487.619193 230.89234a145.845989 145.845989 0 0 1-48.61533-102.643199L438.857578 121.910131c0-45.543348 20.967494-87.649002 56.563473-115.565026z m359.007387 589.381635l-2.681889 0.170665a97.181898 97.181898 0 0 0-60.171832 28.184214l-3.998453 4.217879a97.133136 97.133136 0 0 0-24.185761 55.953953l-0.146284 2.633127 2.633127-0.146285a97.084374 97.084374 0 0 0 60.171832-28.184213 97.157517 97.157517 0 0 0 28.037928-58.684603l0.341332-4.144737z m-701.118875-24.356427l0.316951 4.144737a97.157517 97.157517 0 0 0 28.037928 58.660223 97.084374 97.084374 0 0 0 60.171833 28.184213l2.633127 0.146285-0.146285-2.633127a97.133136 97.133136 0 0 0-24.185761-55.953953l-3.998452-4.21788a97.181898 97.181898 0 0 0-60.147452-28.184213l-2.681889-0.146285z m97.523229-316.950494l0.316951 4.144737a97.157517 97.157517 0 0 0 28.037928 58.660222 97.084374 97.084374 0 0 0 60.171833 28.184214l2.633127 0.146284-0.146285-2.633127a97.133136 97.133136 0 0 0-24.185761-55.953952l-3.998452-4.21788a97.181898 97.181898 0 0 0-60.147452-28.184213l-2.681889-0.146285z m524.187356 0l-2.706269 0.146285a97.181898 97.181898 0 0 0-60.171832 28.184213l-3.974072 4.21788a97.133136 97.133136 0 0 0-24.210142 55.953952l-0.146284 2.633127 2.633127-0.146284a97.084374 97.084374 0 0 0 60.171832-28.184214 97.157517 97.157517 0 0 0 28.037928-58.684603l0.341332-4.144737zM511.951238 57.398515l-2.681888 3.169505c-13.823918 17.066565-21.674538 38.521675-21.674538 61.29335 0 23.332433 8.216332 45.250778 22.625389 62.488009l1.755418 1.950464 1.755418-1.950464c13.214398-15.798763 21.211302-35.547217 22.454724-56.685377L536.380807 121.910131c0-23.308052-8.216332-45.226397-22.625389-62.463628L512 57.422896z" fill="#707070" p-id="8576"></path></svg>