<?xml version="1.0" standalone="no"?><!DOCTYPE svg PUBLIC "-//W3C//DTD SVG 1.1//EN" "http://www.w3.org/Graphics/SVG/1.1/DTD/svg11.dtd"><svg t="1596266264263" class="icon" viewBox="0 0 1024 1024" version="1.1" xmlns="http://www.w3.org/2000/svg" p-id="1846" xmlns:xlink="http://www.w3.org/1999/xlink" width="200" height="200"><defs><style type="text/css"></style></defs><path d="M793.54047 277.499494a276.554019 276.554019 0 1 0-418.598415 236.368571A498.96931 498.96931 0 0 0 18.854337 988.000536a29.86002 29.86002 0 0 0 59.720041 0A438.970204 438.970204 0 0 1 493.265874 553.216316h24.557774a276.833085 276.833085 0 0 0 275.716822-275.716822z m-276.274954 216.833979a216.833979 216.833979 0 1 1 216.833979-216.833979 217.113044 217.113044 0 0 1-216.833979 216.554913zM974.654051 793.491806H833.725918v-141.207198a29.86002 29.86002 0 0 0-59.720041 0v141.207198H632.798679a29.86002 29.86002 0 0 0 0 59.720041h140.928133v140.928133a29.86002 29.86002 0 0 0 59.72004 0v-140.928133h140.928133a29.86002 29.86002 0 0 0 0-59.720041z" p-id="1847"></path></svg>